<mxfile host="app.diagrams.net" modified="2024-07-22T13:30:27.776Z" agent="Mozilla/5.0 (X11; Linux x86_64) AppleWebKit/537.36 (KHTML, like Gecko) Chrome/126.0.0.0 Safari/537.36" etag="BQV7gEiEJt3DISS9wT1H" version="24.7.1" type="device">
  <diagram name="Page-1" id="Vyur2kS933aH3F0kVCXf">
    <mxGraphModel dx="2694" dy="2256" grid="1" gridSize="10" guides="1" tooltips="1" connect="1" arrows="1" fold="1" page="1" pageScale="1" pageWidth="850" pageHeight="1100" math="1" shadow="0">
      <root>
        <mxCell id="0" />
        <mxCell id="1" parent="0" />
        <mxCell id="TFzHgLDjFruAC8fcnrSV-130" style="rounded=0;orthogonalLoop=1;jettySize=auto;html=1;entryX=0;entryY=0;entryDx=0;entryDy=0;exitX=0.5;exitY=1;exitDx=0;exitDy=0;" edge="1" parent="1" source="TFzHgLDjFruAC8fcnrSV-3" target="TFzHgLDjFruAC8fcnrSV-127">
          <mxGeometry relative="1" as="geometry">
            <mxPoint x="140.4958702895677" y="-17.557085362951312" as="sourcePoint" />
          </mxGeometry>
        </mxCell>
        <mxCell id="TFzHgLDjFruAC8fcnrSV-3" value="Client&lt;sub&gt;&lt;span&gt;1&lt;/span&gt;&lt;/sub&gt;" style="ellipse;whiteSpace=wrap;html=1;fontStyle=2" vertex="1" parent="1">
          <mxGeometry x="30" y="-76.5" width="100" height="60" as="geometry" />
        </mxCell>
        <mxCell id="TFzHgLDjFruAC8fcnrSV-129" style="edgeStyle=orthogonalEdgeStyle;rounded=0;orthogonalLoop=1;jettySize=auto;html=1;entryX=0.5;entryY=0;entryDx=0;entryDy=0;" edge="1" parent="1" source="TFzHgLDjFruAC8fcnrSV-4" target="TFzHgLDjFruAC8fcnrSV-127">
          <mxGeometry relative="1" as="geometry" />
        </mxCell>
        <mxCell id="TFzHgLDjFruAC8fcnrSV-4" value="Client&lt;sub&gt;&lt;span&gt;2&lt;/span&gt;&lt;/sub&gt;" style="ellipse;whiteSpace=wrap;html=1;fontStyle=2" vertex="1" parent="1">
          <mxGeometry x="143.34" y="-90" width="100" height="60" as="geometry" />
        </mxCell>
        <mxCell id="TFzHgLDjFruAC8fcnrSV-128" style="rounded=0;orthogonalLoop=1;jettySize=auto;html=1;entryX=1;entryY=0;entryDx=0;entryDy=0;" edge="1" parent="1" source="TFzHgLDjFruAC8fcnrSV-5" target="TFzHgLDjFruAC8fcnrSV-127">
          <mxGeometry relative="1" as="geometry" />
        </mxCell>
        <mxCell id="TFzHgLDjFruAC8fcnrSV-5" value="Client&lt;sub&gt;&lt;span&gt;N&lt;/span&gt;&lt;/sub&gt;" style="ellipse;whiteSpace=wrap;html=1;fontStyle=2" vertex="1" parent="1">
          <mxGeometry x="261" y="-76.5" width="100" height="60" as="geometry" />
        </mxCell>
        <mxCell id="TFzHgLDjFruAC8fcnrSV-115" style="edgeStyle=orthogonalEdgeStyle;rounded=0;orthogonalLoop=1;jettySize=auto;html=1;entryX=0.5;entryY=0;entryDx=0;entryDy=0;" edge="1" parent="1" source="TFzHgLDjFruAC8fcnrSV-9" target="TFzHgLDjFruAC8fcnrSV-81">
          <mxGeometry relative="1" as="geometry" />
        </mxCell>
        <mxCell id="TFzHgLDjFruAC8fcnrSV-116" style="edgeStyle=orthogonalEdgeStyle;rounded=0;orthogonalLoop=1;jettySize=auto;html=1;entryX=0.5;entryY=0;entryDx=0;entryDy=0;" edge="1" parent="1" source="TFzHgLDjFruAC8fcnrSV-9" target="TFzHgLDjFruAC8fcnrSV-72">
          <mxGeometry relative="1" as="geometry">
            <Array as="points">
              <mxPoint x="255" y="470" />
              <mxPoint x="14" y="470" />
            </Array>
          </mxGeometry>
        </mxCell>
        <mxCell id="TFzHgLDjFruAC8fcnrSV-118" value="HTTP" style="edgeLabel;html=1;align=center;verticalAlign=middle;resizable=0;points=[];fontStyle=2" vertex="1" connectable="0" parent="TFzHgLDjFruAC8fcnrSV-116">
          <mxGeometry x="-0.0222" y="1" relative="1" as="geometry">
            <mxPoint as="offset" />
          </mxGeometry>
        </mxCell>
        <mxCell id="TFzHgLDjFruAC8fcnrSV-117" style="edgeStyle=orthogonalEdgeStyle;rounded=0;orthogonalLoop=1;jettySize=auto;html=1;entryX=0.5;entryY=0;entryDx=0;entryDy=0;" edge="1" parent="1" source="TFzHgLDjFruAC8fcnrSV-9" target="TFzHgLDjFruAC8fcnrSV-88">
          <mxGeometry relative="1" as="geometry">
            <Array as="points">
              <mxPoint x="255" y="470" />
              <mxPoint x="494" y="470" />
            </Array>
          </mxGeometry>
        </mxCell>
        <mxCell id="TFzHgLDjFruAC8fcnrSV-119" value="HTTP" style="edgeLabel;html=1;align=center;verticalAlign=middle;resizable=0;points=[];fontStyle=2" vertex="1" connectable="0" parent="TFzHgLDjFruAC8fcnrSV-117">
          <mxGeometry x="-0.0116" y="-2" relative="1" as="geometry">
            <mxPoint as="offset" />
          </mxGeometry>
        </mxCell>
        <mxCell id="TFzHgLDjFruAC8fcnrSV-9" value="" style="rounded=0;whiteSpace=wrap;html=1;" vertex="1" parent="1">
          <mxGeometry x="120" y="150" width="270" height="290" as="geometry" />
        </mxCell>
        <mxCell id="TFzHgLDjFruAC8fcnrSV-6" value="" style="rounded=0;whiteSpace=wrap;html=1;" vertex="1" parent="1">
          <mxGeometry x="140" y="180" width="230" height="240" as="geometry" />
        </mxCell>
        <mxCell id="TFzHgLDjFruAC8fcnrSV-8" value="Balancer" style="text;html=1;align=center;verticalAlign=middle;whiteSpace=wrap;rounded=0;fontStyle=1" vertex="1" parent="1">
          <mxGeometry x="160" y="190" width="60" height="30" as="geometry" />
        </mxCell>
        <mxCell id="TFzHgLDjFruAC8fcnrSV-10" value="" style="shape=image;verticalLabelPosition=bottom;labelBackgroundColor=default;verticalAlign=top;aspect=fixed;imageAspect=0;image=https://logowik.com/content/uploads/images/rust8244.jpg;" vertex="1" parent="1">
          <mxGeometry x="313.03" y="191" width="39.97" height="30" as="geometry" />
        </mxCell>
        <mxCell id="TFzHgLDjFruAC8fcnrSV-11" value="distributor" style="rounded=1;whiteSpace=wrap;html=1;fontFamily=Courier New;strokeColor=#000000;" vertex="1" parent="1">
          <mxGeometry x="160" y="235" width="190" height="30" as="geometry" />
        </mxCell>
        <mxCell id="TFzHgLDjFruAC8fcnrSV-12" value="queue&amp;nbsp;&lt;u&gt;decode&lt;/u&gt;" style="rounded=1;whiteSpace=wrap;html=1;fontFamily=Courier New;dashed=1;" vertex="1" parent="1">
          <mxGeometry x="160" y="280" width="190" height="30" as="geometry" />
        </mxCell>
        <mxCell id="TFzHgLDjFruAC8fcnrSV-13" value="http" style="rounded=1;whiteSpace=wrap;html=1;fontFamily=Courier New;" vertex="1" parent="1">
          <mxGeometry x="160" y="326" width="190" height="30" as="geometry" />
        </mxCell>
        <mxCell id="TFzHgLDjFruAC8fcnrSV-14" value="websocket" style="rounded=1;whiteSpace=wrap;html=1;fontFamily=Courier New;" vertex="1" parent="1">
          <mxGeometry x="160" y="370" width="190" height="30" as="geometry" />
        </mxCell>
        <mxCell id="TFzHgLDjFruAC8fcnrSV-147" style="edgeStyle=orthogonalEdgeStyle;rounded=0;orthogonalLoop=1;jettySize=auto;html=1;entryX=0.5;entryY=1;entryDx=0;entryDy=0;exitX=0.75;exitY=0;exitDx=0;exitDy=0;" edge="1" parent="1" source="TFzHgLDjFruAC8fcnrSV-23" target="TFzHgLDjFruAC8fcnrSV-133">
          <mxGeometry relative="1" as="geometry">
            <Array as="points">
              <mxPoint x="317" y="90" />
              <mxPoint x="567" y="90" />
            </Array>
          </mxGeometry>
        </mxCell>
        <mxCell id="TFzHgLDjFruAC8fcnrSV-23" value="" style="rounded=1;whiteSpace=wrap;html=1;arcSize=28;" vertex="1" parent="1">
          <mxGeometry x="130" y="130" width="250" height="40" as="geometry" />
        </mxCell>
        <mxCell id="TFzHgLDjFruAC8fcnrSV-7" value="" style="shape=image;verticalLabelPosition=bottom;labelBackgroundColor=default;verticalAlign=top;aspect=fixed;imageAspect=0;image=https://cdn-icons-png.flaticon.com/512/919/919853.png;" vertex="1" parent="1">
          <mxGeometry x="345" y="137.5" width="25" height="25" as="geometry" />
        </mxCell>
        <mxCell id="TFzHgLDjFruAC8fcnrSV-24" value="Docker Host" style="text;html=1;align=center;verticalAlign=middle;whiteSpace=wrap;rounded=0;fontStyle=1" vertex="1" parent="1">
          <mxGeometry x="139" y="135" width="80" height="30" as="geometry" />
        </mxCell>
        <mxCell id="TFzHgLDjFruAC8fcnrSV-124" style="edgeStyle=orthogonalEdgeStyle;rounded=0;orthogonalLoop=1;jettySize=auto;html=1;entryX=0.5;entryY=0;entryDx=0;entryDy=0;" edge="1" parent="1" source="TFzHgLDjFruAC8fcnrSV-25" target="TFzHgLDjFruAC8fcnrSV-68">
          <mxGeometry relative="1" as="geometry" />
        </mxCell>
        <mxCell id="TFzHgLDjFruAC8fcnrSV-25" value="" style="rounded=0;whiteSpace=wrap;html=1;" vertex="1" parent="1">
          <mxGeometry x="740" y="150" width="270" height="335" as="geometry" />
        </mxCell>
        <mxCell id="TFzHgLDjFruAC8fcnrSV-26" value="" style="rounded=0;whiteSpace=wrap;html=1;" vertex="1" parent="1">
          <mxGeometry x="760" y="180" width="230" height="285" as="geometry" />
        </mxCell>
        <mxCell id="TFzHgLDjFruAC8fcnrSV-27" value="Deployment Agent" style="text;html=1;align=left;verticalAlign=middle;whiteSpace=wrap;rounded=0;fontStyle=1" vertex="1" parent="1">
          <mxGeometry x="780" y="190" width="150" height="30" as="geometry" />
        </mxCell>
        <mxCell id="TFzHgLDjFruAC8fcnrSV-28" value="" style="shape=image;verticalLabelPosition=bottom;labelBackgroundColor=default;verticalAlign=top;aspect=fixed;imageAspect=0;image=https://logowik.com/content/uploads/images/rust8244.jpg;" vertex="1" parent="1">
          <mxGeometry x="933.03" y="191" width="39.97" height="30" as="geometry" />
        </mxCell>
        <mxCell id="TFzHgLDjFruAC8fcnrSV-29" value="management" style="rounded=1;whiteSpace=wrap;html=1;fontFamily=Courier New;" vertex="1" parent="1">
          <mxGeometry x="780" y="235" width="190" height="30" as="geometry" />
        </mxCell>
        <mxCell id="TFzHgLDjFruAC8fcnrSV-30" value="queue&amp;nbsp;&lt;u&gt;encode&lt;/u&gt;" style="rounded=1;whiteSpace=wrap;html=1;fontFamily=Courier New;dashed=1;" vertex="1" parent="1">
          <mxGeometry x="780" y="280" width="190" height="30" as="geometry" />
        </mxCell>
        <mxCell id="TFzHgLDjFruAC8fcnrSV-31" value="http" style="rounded=1;whiteSpace=wrap;html=1;fontFamily=Courier New;" vertex="1" parent="1">
          <mxGeometry x="780" y="326" width="190" height="30" as="geometry" />
        </mxCell>
        <mxCell id="TFzHgLDjFruAC8fcnrSV-32" value="websocket" style="rounded=1;whiteSpace=wrap;html=1;fontFamily=Courier New;" vertex="1" parent="1">
          <mxGeometry x="780" y="370" width="190" height="30" as="geometry" />
        </mxCell>
        <mxCell id="TFzHgLDjFruAC8fcnrSV-148" style="edgeStyle=orthogonalEdgeStyle;rounded=0;orthogonalLoop=1;jettySize=auto;html=1;entryX=0.5;entryY=1;entryDx=0;entryDy=0;exitX=0.25;exitY=0;exitDx=0;exitDy=0;" edge="1" parent="1" source="TFzHgLDjFruAC8fcnrSV-33" target="TFzHgLDjFruAC8fcnrSV-133">
          <mxGeometry relative="1" as="geometry">
            <Array as="points">
              <mxPoint x="813" y="90" />
              <mxPoint x="567" y="90" />
            </Array>
          </mxGeometry>
        </mxCell>
        <mxCell id="TFzHgLDjFruAC8fcnrSV-151" value="&lt;i&gt;HTTP&lt;/i&gt;" style="edgeLabel;html=1;align=center;verticalAlign=middle;resizable=0;points=[];" vertex="1" connectable="0" parent="TFzHgLDjFruAC8fcnrSV-148">
          <mxGeometry x="0.8179" y="1" relative="1" as="geometry">
            <mxPoint y="-3" as="offset" />
          </mxGeometry>
        </mxCell>
        <mxCell id="TFzHgLDjFruAC8fcnrSV-33" value="" style="rounded=1;whiteSpace=wrap;html=1;arcSize=28;" vertex="1" parent="1">
          <mxGeometry x="750" y="130" width="250" height="40" as="geometry" />
        </mxCell>
        <mxCell id="TFzHgLDjFruAC8fcnrSV-34" value="" style="shape=image;verticalLabelPosition=bottom;labelBackgroundColor=default;verticalAlign=top;aspect=fixed;imageAspect=0;image=https://cdn-icons-png.flaticon.com/512/919/919853.png;" vertex="1" parent="1">
          <mxGeometry x="965" y="137.5" width="25" height="25" as="geometry" />
        </mxCell>
        <mxCell id="TFzHgLDjFruAC8fcnrSV-35" value="Docker Host" style="text;html=1;align=center;verticalAlign=middle;whiteSpace=wrap;rounded=0;fontStyle=1" vertex="1" parent="1">
          <mxGeometry x="759" y="135" width="80" height="30" as="geometry" />
        </mxCell>
        <mxCell id="TFzHgLDjFruAC8fcnrSV-36" value="stats" style="rounded=1;whiteSpace=wrap;html=1;fontFamily=Courier New;" vertex="1" parent="1">
          <mxGeometry x="780" y="415" width="190" height="30" as="geometry" />
        </mxCell>
        <mxCell id="TFzHgLDjFruAC8fcnrSV-37" value="" style="endArrow=none;html=1;rounded=0;exitX=1;exitY=0.5;exitDx=0;exitDy=0;entryX=0.001;entryY=0.433;entryDx=0;entryDy=0;entryPerimeter=0;" edge="1" parent="1" source="TFzHgLDjFruAC8fcnrSV-9" target="TFzHgLDjFruAC8fcnrSV-25">
          <mxGeometry width="50" height="50" relative="1" as="geometry">
            <mxPoint x="460" y="320" as="sourcePoint" />
            <mxPoint x="510" y="270" as="targetPoint" />
          </mxGeometry>
        </mxCell>
        <mxCell id="TFzHgLDjFruAC8fcnrSV-38" value="" style="endArrow=none;html=1;rounded=0;exitX=1;exitY=0.5;exitDx=0;exitDy=0;entryX=0;entryY=0.448;entryDx=0;entryDy=0;entryPerimeter=0;" edge="1" parent="1" target="TFzHgLDjFruAC8fcnrSV-25">
          <mxGeometry width="50" height="50" relative="1" as="geometry">
            <mxPoint x="390" y="299.8" as="sourcePoint" />
            <mxPoint x="630" y="299.8" as="targetPoint" />
          </mxGeometry>
        </mxCell>
        <mxCell id="TFzHgLDjFruAC8fcnrSV-39" value="Websocket" style="text;html=1;align=center;verticalAlign=middle;whiteSpace=wrap;rounded=0;fontStyle=2" vertex="1" parent="1">
          <mxGeometry x="537.5" y="300" width="60" height="30" as="geometry" />
        </mxCell>
        <mxCell id="TFzHgLDjFruAC8fcnrSV-62" value="&lt;div&gt;&lt;br&gt;&lt;/div&gt;" style="text;html=1;align=center;verticalAlign=middle;resizable=0;points=[];autosize=1;strokeColor=none;fillColor=none;" vertex="1" parent="1">
          <mxGeometry x="665" y="160" width="20" height="30" as="geometry" />
        </mxCell>
        <mxCell id="TFzHgLDjFruAC8fcnrSV-120" style="edgeStyle=orthogonalEdgeStyle;rounded=0;orthogonalLoop=1;jettySize=auto;html=1;entryX=0.5;entryY=1;entryDx=0;entryDy=0;" edge="1" parent="1" source="TFzHgLDjFruAC8fcnrSV-68" target="TFzHgLDjFruAC8fcnrSV-86">
          <mxGeometry relative="1" as="geometry">
            <Array as="points">
              <mxPoint x="875" y="650" />
              <mxPoint x="495" y="650" />
            </Array>
          </mxGeometry>
        </mxCell>
        <mxCell id="TFzHgLDjFruAC8fcnrSV-121" style="edgeStyle=orthogonalEdgeStyle;rounded=0;orthogonalLoop=1;jettySize=auto;html=1;entryX=0.5;entryY=1;entryDx=0;entryDy=0;" edge="1" parent="1" source="TFzHgLDjFruAC8fcnrSV-68" target="TFzHgLDjFruAC8fcnrSV-79">
          <mxGeometry relative="1" as="geometry">
            <Array as="points">
              <mxPoint x="875" y="650" />
              <mxPoint x="256" y="650" />
            </Array>
          </mxGeometry>
        </mxCell>
        <mxCell id="TFzHgLDjFruAC8fcnrSV-68" value="Docker API" style="rounded=0;whiteSpace=wrap;html=1;fontStyle=1" vertex="1" parent="1">
          <mxGeometry x="740" y="520" width="270" height="40" as="geometry" />
        </mxCell>
        <mxCell id="TFzHgLDjFruAC8fcnrSV-101" value="" style="group" vertex="1" connectable="0" parent="1">
          <mxGeometry x="-90" y="510" width="210" height="100" as="geometry" />
        </mxCell>
        <mxCell id="TFzHgLDjFruAC8fcnrSV-71" value="" style="rounded=0;whiteSpace=wrap;html=1;" vertex="1" parent="TFzHgLDjFruAC8fcnrSV-101">
          <mxGeometry y="20" width="210" height="80" as="geometry" />
        </mxCell>
        <mxCell id="TFzHgLDjFruAC8fcnrSV-76" value="" style="group" vertex="1" connectable="0" parent="TFzHgLDjFruAC8fcnrSV-101">
          <mxGeometry x="19" width="170" height="40" as="geometry" />
        </mxCell>
        <mxCell id="TFzHgLDjFruAC8fcnrSV-72" value="" style="rounded=1;whiteSpace=wrap;html=1;arcSize=28;" vertex="1" parent="TFzHgLDjFruAC8fcnrSV-76">
          <mxGeometry width="170" height="40" as="geometry" />
        </mxCell>
        <mxCell id="TFzHgLDjFruAC8fcnrSV-73" value="" style="shape=image;verticalLabelPosition=bottom;labelBackgroundColor=default;verticalAlign=top;aspect=fixed;imageAspect=0;image=https://cdn-icons-png.flaticon.com/512/919/919853.png;" vertex="1" parent="TFzHgLDjFruAC8fcnrSV-76">
          <mxGeometry x="137.5" y="8" width="25" height="25" as="geometry" />
        </mxCell>
        <mxCell id="TFzHgLDjFruAC8fcnrSV-74" value="Docker Worker (&lt;span style=&quot;font-family: Verdana; font-style: italic; text-align: center;&quot;&gt;W&lt;/span&gt;&lt;sub style=&quot;font-family: Verdana; font-style: italic; text-align: center; font-size: 12px;&quot;&gt;1&lt;/sub&gt;)" style="text;html=1;align=left;verticalAlign=middle;whiteSpace=wrap;rounded=0;fontStyle=1" vertex="1" parent="TFzHgLDjFruAC8fcnrSV-76">
          <mxGeometry x="9" y="5" width="141" height="30" as="geometry" />
        </mxCell>
        <mxCell id="TFzHgLDjFruAC8fcnrSV-78" value="Application" style="rounded=1;whiteSpace=wrap;html=1;fontFamily=Courier New;" vertex="1" parent="TFzHgLDjFruAC8fcnrSV-101">
          <mxGeometry x="19" y="55" width="171" height="30" as="geometry" />
        </mxCell>
        <mxCell id="TFzHgLDjFruAC8fcnrSV-102" value="" style="group" vertex="1" connectable="0" parent="1">
          <mxGeometry x="151" y="510" width="210" height="100" as="geometry" />
        </mxCell>
        <mxCell id="TFzHgLDjFruAC8fcnrSV-79" value="" style="rounded=0;whiteSpace=wrap;html=1;" vertex="1" parent="TFzHgLDjFruAC8fcnrSV-102">
          <mxGeometry y="20" width="210" height="80" as="geometry" />
        </mxCell>
        <mxCell id="TFzHgLDjFruAC8fcnrSV-80" value="" style="group" vertex="1" connectable="0" parent="TFzHgLDjFruAC8fcnrSV-102">
          <mxGeometry x="19" width="170" height="40" as="geometry" />
        </mxCell>
        <mxCell id="TFzHgLDjFruAC8fcnrSV-81" value="" style="rounded=1;whiteSpace=wrap;html=1;arcSize=28;" vertex="1" parent="TFzHgLDjFruAC8fcnrSV-80">
          <mxGeometry width="170" height="40" as="geometry" />
        </mxCell>
        <mxCell id="TFzHgLDjFruAC8fcnrSV-82" value="" style="shape=image;verticalLabelPosition=bottom;labelBackgroundColor=default;verticalAlign=top;aspect=fixed;imageAspect=0;image=https://cdn-icons-png.flaticon.com/512/919/919853.png;" vertex="1" parent="TFzHgLDjFruAC8fcnrSV-80">
          <mxGeometry x="137.5" y="8" width="25" height="25" as="geometry" />
        </mxCell>
        <mxCell id="TFzHgLDjFruAC8fcnrSV-83" value="Docker Worker (&lt;span style=&quot;font-family: Verdana; font-style: italic; text-align: center;&quot;&gt;W&lt;/span&gt;&lt;sub style=&quot;font-family: Verdana; font-style: italic; text-align: center; font-size: 12px;&quot;&gt;2&lt;/sub&gt;)" style="text;html=1;align=left;verticalAlign=middle;whiteSpace=wrap;rounded=0;fontStyle=1" vertex="1" parent="TFzHgLDjFruAC8fcnrSV-80">
          <mxGeometry x="9" y="5" width="141" height="30" as="geometry" />
        </mxCell>
        <mxCell id="TFzHgLDjFruAC8fcnrSV-84" value="Application" style="rounded=1;whiteSpace=wrap;html=1;fontFamily=Courier New;" vertex="1" parent="TFzHgLDjFruAC8fcnrSV-102">
          <mxGeometry x="19" y="55" width="171" height="30" as="geometry" />
        </mxCell>
        <mxCell id="TFzHgLDjFruAC8fcnrSV-103" value="" style="group" vertex="1" connectable="0" parent="1">
          <mxGeometry x="390" y="510" width="210" height="100" as="geometry" />
        </mxCell>
        <mxCell id="TFzHgLDjFruAC8fcnrSV-86" value="" style="rounded=0;whiteSpace=wrap;html=1;" vertex="1" parent="TFzHgLDjFruAC8fcnrSV-103">
          <mxGeometry y="20" width="210" height="80" as="geometry" />
        </mxCell>
        <mxCell id="TFzHgLDjFruAC8fcnrSV-87" value="" style="group" vertex="1" connectable="0" parent="TFzHgLDjFruAC8fcnrSV-103">
          <mxGeometry x="19" width="170" height="40" as="geometry" />
        </mxCell>
        <mxCell id="TFzHgLDjFruAC8fcnrSV-88" value="" style="rounded=1;whiteSpace=wrap;html=1;arcSize=28;" vertex="1" parent="TFzHgLDjFruAC8fcnrSV-87">
          <mxGeometry width="170" height="40" as="geometry" />
        </mxCell>
        <mxCell id="TFzHgLDjFruAC8fcnrSV-89" value="" style="shape=image;verticalLabelPosition=bottom;labelBackgroundColor=default;verticalAlign=top;aspect=fixed;imageAspect=0;image=https://cdn-icons-png.flaticon.com/512/919/919853.png;" vertex="1" parent="TFzHgLDjFruAC8fcnrSV-87">
          <mxGeometry x="137.5" y="8" width="25" height="25" as="geometry" />
        </mxCell>
        <mxCell id="TFzHgLDjFruAC8fcnrSV-90" value="Docker Worker (&lt;span style=&quot;font-family: Verdana; font-style: italic; text-align: center;&quot;&gt;W&lt;/span&gt;&lt;sub style=&quot;font-family: Verdana; font-style: italic; text-align: center; font-size: 12px;&quot;&gt;N&lt;/sub&gt;)" style="text;html=1;align=left;verticalAlign=middle;whiteSpace=wrap;rounded=0;fontStyle=1" vertex="1" parent="TFzHgLDjFruAC8fcnrSV-87">
          <mxGeometry x="9" y="5" width="141" height="30" as="geometry" />
        </mxCell>
        <mxCell id="TFzHgLDjFruAC8fcnrSV-91" value="Application" style="rounded=1;whiteSpace=wrap;html=1;fontFamily=Courier New;" vertex="1" parent="TFzHgLDjFruAC8fcnrSV-103">
          <mxGeometry x="19" y="55" width="171" height="30" as="geometry" />
        </mxCell>
        <mxCell id="TFzHgLDjFruAC8fcnrSV-108" value="" style="endArrow=none;html=1;rounded=0;entryX=0;entryY=0.5;entryDx=0;entryDy=0;exitX=1;exitY=0.5;exitDx=0;exitDy=0;strokeColor=#000000;dashed=1;" edge="1" parent="1" source="TFzHgLDjFruAC8fcnrSV-107" target="TFzHgLDjFruAC8fcnrSV-12">
          <mxGeometry width="50" height="50" relative="1" as="geometry">
            <mxPoint x="-30" y="220" as="sourcePoint" />
            <mxPoint x="20" y="170" as="targetPoint" />
          </mxGeometry>
        </mxCell>
        <mxCell id="TFzHgLDjFruAC8fcnrSV-113" value="" style="group;fillColor=#E6E6E6;fontColor=#333333;strokeColor=none;dashed=1;container=0;" vertex="1" connectable="0" parent="1">
          <mxGeometry x="-160" y="182.5" width="230" height="235" as="geometry" />
        </mxCell>
        <mxCell id="TFzHgLDjFruAC8fcnrSV-122" style="edgeStyle=orthogonalEdgeStyle;rounded=0;orthogonalLoop=1;jettySize=auto;html=1;entryX=0.449;entryY=0.999;entryDx=0;entryDy=0;entryPerimeter=0;" edge="1" parent="1" source="TFzHgLDjFruAC8fcnrSV-68" target="TFzHgLDjFruAC8fcnrSV-71">
          <mxGeometry relative="1" as="geometry">
            <Array as="points">
              <mxPoint x="875" y="650" />
              <mxPoint x="4" y="650" />
            </Array>
          </mxGeometry>
        </mxCell>
        <mxCell id="TFzHgLDjFruAC8fcnrSV-125" value="Reactive querying via the states" style="edgeLabel;html=1;align=center;verticalAlign=middle;resizable=0;points=[];fontStyle=2" vertex="1" connectable="0" parent="TFzHgLDjFruAC8fcnrSV-122">
          <mxGeometry x="-0.5091" relative="1" as="geometry">
            <mxPoint as="offset" />
          </mxGeometry>
        </mxCell>
        <mxCell id="TFzHgLDjFruAC8fcnrSV-131" style="edgeStyle=orthogonalEdgeStyle;rounded=0;orthogonalLoop=1;jettySize=auto;html=1;entryX=0.25;entryY=0;entryDx=0;entryDy=0;" edge="1" parent="1" source="TFzHgLDjFruAC8fcnrSV-127">
          <mxGeometry relative="1" as="geometry">
            <mxPoint x="193.7442857142857" y="50" as="sourcePoint" />
            <mxPoint x="192.93" y="130" as="targetPoint" />
            <Array as="points">
              <mxPoint x="193.43" y="82" />
            </Array>
          </mxGeometry>
        </mxCell>
        <mxCell id="TFzHgLDjFruAC8fcnrSV-150" value="&lt;i&gt;HTTP&lt;/i&gt;" style="edgeLabel;html=1;align=center;verticalAlign=middle;resizable=0;points=[];" vertex="1" connectable="0" parent="TFzHgLDjFruAC8fcnrSV-131">
          <mxGeometry x="-0.1667" relative="1" as="geometry">
            <mxPoint as="offset" />
          </mxGeometry>
        </mxCell>
        <mxCell id="TFzHgLDjFruAC8fcnrSV-145" value="" style="group" vertex="1" connectable="0" parent="1">
          <mxGeometry x="432.5" y="-196.97" width="270" height="235" as="geometry" />
        </mxCell>
        <mxCell id="TFzHgLDjFruAC8fcnrSV-133" value="" style="rounded=0;whiteSpace=wrap;html=1;" vertex="1" parent="TFzHgLDjFruAC8fcnrSV-145">
          <mxGeometry y="19" width="270" height="215" as="geometry" />
        </mxCell>
        <mxCell id="TFzHgLDjFruAC8fcnrSV-134" value="" style="rounded=0;whiteSpace=wrap;html=1;" vertex="1" parent="TFzHgLDjFruAC8fcnrSV-145">
          <mxGeometry x="20" y="50" width="230" height="160" as="geometry" />
        </mxCell>
        <mxCell id="TFzHgLDjFruAC8fcnrSV-135" value="matric" style="rounded=1;whiteSpace=wrap;html=1;fontFamily=Courier New;" vertex="1" parent="TFzHgLDjFruAC8fcnrSV-145">
          <mxGeometry x="40" y="115" width="190" height="30" as="geometry" />
        </mxCell>
        <mxCell id="TFzHgLDjFruAC8fcnrSV-136" value="" style="rounded=1;whiteSpace=wrap;html=1;arcSize=28;" vertex="1" parent="TFzHgLDjFruAC8fcnrSV-145">
          <mxGeometry x="10" width="250" height="40" as="geometry" />
        </mxCell>
        <mxCell id="TFzHgLDjFruAC8fcnrSV-137" value="" style="shape=image;verticalLabelPosition=bottom;labelBackgroundColor=default;verticalAlign=top;aspect=fixed;imageAspect=0;image=https://cdn-icons-png.flaticon.com/512/919/919853.png;" vertex="1" parent="TFzHgLDjFruAC8fcnrSV-145">
          <mxGeometry x="225" y="7.5" width="25" height="25" as="geometry" />
        </mxCell>
        <mxCell id="TFzHgLDjFruAC8fcnrSV-138" value="Docker Host" style="text;html=1;align=center;verticalAlign=middle;whiteSpace=wrap;rounded=0;fontStyle=1" vertex="1" parent="TFzHgLDjFruAC8fcnrSV-145">
          <mxGeometry x="19" y="5" width="80" height="30" as="geometry" />
        </mxCell>
        <mxCell id="TFzHgLDjFruAC8fcnrSV-139" value="Dashboard" style="text;html=1;align=left;verticalAlign=middle;whiteSpace=wrap;rounded=0;fontStyle=1" vertex="1" parent="TFzHgLDjFruAC8fcnrSV-145">
          <mxGeometry x="40" y="65" width="150" height="30" as="geometry" />
        </mxCell>
        <mxCell id="TFzHgLDjFruAC8fcnrSV-140" value="alert" style="rounded=1;whiteSpace=wrap;html=1;fontFamily=Courier New;dashed=1;" vertex="1" parent="TFzHgLDjFruAC8fcnrSV-145">
          <mxGeometry x="40" y="161" width="190" height="30" as="geometry" />
        </mxCell>
        <mxCell id="TFzHgLDjFruAC8fcnrSV-141" value="" style="shape=image;verticalLabelPosition=bottom;labelBackgroundColor=default;verticalAlign=top;aspect=fixed;imageAspect=0;image=https://upload.wikimedia.org/wikipedia/commons/thumb/c/c3/Python-logo-notext.svg/1869px-Python-logo-notext.svg.png;clipPath=inset(1% 9.71% 15.67% 0%);" vertex="1" parent="TFzHgLDjFruAC8fcnrSV-145">
          <mxGeometry x="125.21000000000004" y="66.25" width="29.58" height="30" as="geometry" />
        </mxCell>
        <mxCell id="TFzHgLDjFruAC8fcnrSV-142" value="" style="shape=image;verticalLabelPosition=bottom;labelBackgroundColor=default;verticalAlign=top;aspect=fixed;imageAspect=0;image=https://upload.wikimedia.org/wikipedia/commons/thumb/7/77/Streamlit-logo-primary-colormark-darktext.png/1024px-Streamlit-logo-primary-colormark-darktext.png;" vertex="1" parent="TFzHgLDjFruAC8fcnrSV-145">
          <mxGeometry x="154.78999999999996" y="57.5" width="81.2" height="47.5" as="geometry" />
        </mxCell>
        <mxCell id="TFzHgLDjFruAC8fcnrSV-127" value="Proxy" style="rounded=0;whiteSpace=wrap;html=1;" vertex="1" parent="1">
          <mxGeometry x="161.34" y="30" width="64" height="40" as="geometry" />
        </mxCell>
        <mxCell id="TFzHgLDjFruAC8fcnrSV-107" value="" style="rounded=0;whiteSpace=wrap;html=1;strokeColor=#000000;dashed=1;" vertex="1" parent="1">
          <mxGeometry x="-160" y="182.5" width="230" height="235" as="geometry" />
        </mxCell>
        <mxCell id="TFzHgLDjFruAC8fcnrSV-105" value="&lt;div&gt;Calculate the weights based on the position with exponential weighting:&lt;/div&gt;&lt;div&gt;\[ W_0 = 2^{(5-0-1)} = 2^4 = 16 \]&lt;/div&gt;&lt;div&gt;\[ W_1 = 2^{(5-1-1)} = 2^3 = 8 \]&lt;/div&gt;&lt;div&gt;\[ W_2 = 2^{(5-2-1)} = 2^2 = 4 \]&lt;/div&gt;&lt;div&gt;\[ W_3 = 2^{(5-3-1)} = 2^1 = 2 \]&lt;/div&gt;&lt;div&gt;\[ W_4 = 2^{(5-4-1)} = 2^0 = 1 \]&lt;/div&gt;&lt;div&gt;&lt;br&gt;&lt;/div&gt;" style="text;html=1;align=center;verticalAlign=middle;whiteSpace=wrap;rounded=0;" vertex="1" parent="1">
          <mxGeometry x="-145" y="228.5" width="200" height="140" as="geometry" />
        </mxCell>
        <mxCell id="TFzHgLDjFruAC8fcnrSV-111" value="Distribution with Priority Round Robin" style="text;html=1;align=center;verticalAlign=middle;whiteSpace=wrap;rounded=0;" vertex="1" parent="1">
          <mxGeometry x="-147.5" y="377.5" width="205" height="30" as="geometry" />
        </mxCell>
        <mxCell id="TFzHgLDjFruAC8fcnrSV-152" value="" style="rounded=0;whiteSpace=wrap;html=1;strokeColor=#000000;dashed=1;" vertex="1" parent="1">
          <mxGeometry x="1060" y="182.5" width="230" height="235" as="geometry" />
        </mxCell>
        <mxCell id="TFzHgLDjFruAC8fcnrSV-51" value="&lt;div&gt;\[ W_i = 2^{(n-i-1)} \]&lt;/div&gt;&lt;div&gt;&lt;br&gt;&lt;/div&gt;" style="text;whiteSpace=wrap;html=1;fontStyle=0" vertex="1" parent="1">
          <mxGeometry x="1080" y="282.5" width="72.63157894736841" height="50" as="geometry" />
        </mxCell>
        <mxCell id="TFzHgLDjFruAC8fcnrSV-63" value="The weight \( W_i \) for a server \( i \), where \( n \) is the total number of servers and \( i \) is the position of the server in the sorted queue (starting from 0), is given by:&lt;div&gt;&lt;br style=&quot;text-wrap: nowrap;&quot;&gt;&lt;/div&gt;" style="text;html=1;align=left;verticalAlign=middle;whiteSpace=wrap;rounded=0;" vertex="1" parent="1">
          <mxGeometry x="1080" y="205" width="180" height="90" as="geometry" />
        </mxCell>
        <mxCell id="TFzHgLDjFruAC8fcnrSV-64" value="" style="group" vertex="1" connectable="0" parent="1">
          <mxGeometry x="1090" y="330" width="175" height="75" as="geometry" />
        </mxCell>
        <mxCell id="TFzHgLDjFruAC8fcnrSV-52" value="Front" style="text;html=1;align=center;verticalAlign=middle;whiteSpace=wrap;rounded=0;fontSize=10;fontColor=#999999;" vertex="1" parent="TFzHgLDjFruAC8fcnrSV-64">
          <mxGeometry x="140" width="35" height="20" as="geometry" />
        </mxCell>
        <mxCell id="TFzHgLDjFruAC8fcnrSV-53" value="Back" style="text;html=1;align=center;verticalAlign=middle;whiteSpace=wrap;rounded=0;fontSize=10;fontColor=#999999;" vertex="1" parent="TFzHgLDjFruAC8fcnrSV-64">
          <mxGeometry width="35" height="20" as="geometry" />
        </mxCell>
        <mxCell id="TFzHgLDjFruAC8fcnrSV-155" value="" style="group" vertex="1" connectable="0" parent="TFzHgLDjFruAC8fcnrSV-64">
          <mxGeometry y="20" width="175" height="55" as="geometry" />
        </mxCell>
        <mxCell id="TFzHgLDjFruAC8fcnrSV-42" value="&lt;font style=&quot;font-size: 12px;&quot;&gt;W&lt;sub style=&quot;font-size: 12px;&quot;&gt;1&lt;/sub&gt;&lt;/font&gt;" style="rounded=0;whiteSpace=wrap;html=1;aspect=fixed;fontSize=12;fontStyle=3;fontFamily=Verdana;" vertex="1" parent="TFzHgLDjFruAC8fcnrSV-155">
          <mxGeometry width="35" height="35" as="geometry" />
        </mxCell>
        <mxCell id="TFzHgLDjFruAC8fcnrSV-43" value="&lt;font style=&quot;font-size: 12px;&quot;&gt;W&lt;sub style=&quot;font-size: 12px;&quot;&gt;2&lt;/sub&gt;&lt;/font&gt;" style="rounded=0;whiteSpace=wrap;html=1;aspect=fixed;fontSize=12;fontStyle=3;fontFamily=Verdana;" vertex="1" parent="TFzHgLDjFruAC8fcnrSV-155">
          <mxGeometry x="35" width="35" height="35" as="geometry" />
        </mxCell>
        <mxCell id="TFzHgLDjFruAC8fcnrSV-44" value="&lt;font style=&quot;font-size: 12px;&quot;&gt;W&lt;sub style=&quot;font-size: 12px;&quot;&gt;3&lt;/sub&gt;&lt;/font&gt;" style="rounded=0;whiteSpace=wrap;html=1;aspect=fixed;fontSize=12;fontStyle=3;fontFamily=Verdana;" vertex="1" parent="TFzHgLDjFruAC8fcnrSV-155">
          <mxGeometry x="70" width="35" height="35" as="geometry" />
        </mxCell>
        <mxCell id="TFzHgLDjFruAC8fcnrSV-45" value="&lt;font style=&quot;font-size: 12px;&quot;&gt;W&lt;sub style=&quot;font-size: 12px;&quot;&gt;4&lt;/sub&gt;&lt;/font&gt;" style="rounded=0;whiteSpace=wrap;html=1;aspect=fixed;fontSize=12;fontStyle=3;fontFamily=Verdana;" vertex="1" parent="TFzHgLDjFruAC8fcnrSV-155">
          <mxGeometry x="105" width="35" height="35" as="geometry" />
        </mxCell>
        <mxCell id="TFzHgLDjFruAC8fcnrSV-46" value="&lt;font style=&quot;font-size: 12px;&quot;&gt;W&lt;sub style=&quot;font-size: 12px;&quot;&gt;5&lt;/sub&gt;&lt;/font&gt;" style="rounded=0;whiteSpace=wrap;html=1;aspect=fixed;fontSize=12;fontStyle=3;fontFamily=Verdana;" vertex="1" parent="TFzHgLDjFruAC8fcnrSV-155">
          <mxGeometry x="140" width="35" height="35" as="geometry" />
        </mxCell>
        <mxCell id="TFzHgLDjFruAC8fcnrSV-54" value="Low utilization" style="text;html=1;align=center;verticalAlign=middle;whiteSpace=wrap;rounded=0;fontSize=10;fontColor=#000000;fontStyle=2" vertex="1" parent="TFzHgLDjFruAC8fcnrSV-155">
          <mxGeometry y="35" width="75" height="20" as="geometry" />
        </mxCell>
        <mxCell id="TFzHgLDjFruAC8fcnrSV-56" value="High utilization" style="text;html=1;align=center;verticalAlign=middle;whiteSpace=wrap;rounded=0;fontSize=10;fontColor=#000000;fontStyle=2" vertex="1" parent="TFzHgLDjFruAC8fcnrSV-155">
          <mxGeometry x="100" y="35" width="75" height="20" as="geometry" />
        </mxCell>
        <mxCell id="TFzHgLDjFruAC8fcnrSV-156" value="" style="endArrow=none;html=1;rounded=0;entryX=0;entryY=0.5;entryDx=0;entryDy=0;exitX=1;exitY=0.5;exitDx=0;exitDy=0;strokeColor=#000000;dashed=1;" edge="1" parent="1" source="TFzHgLDjFruAC8fcnrSV-30" target="TFzHgLDjFruAC8fcnrSV-152">
          <mxGeometry width="50" height="50" relative="1" as="geometry">
            <mxPoint x="1062.63" y="485" as="sourcePoint" />
            <mxPoint x="1152.63" y="480" as="targetPoint" />
          </mxGeometry>
        </mxCell>
        <mxCell id="TFzHgLDjFruAC8fcnrSV-157" value="" style="shape=curlyBracket;whiteSpace=wrap;html=1;rounded=1;labelPosition=left;verticalLabelPosition=middle;align=right;verticalAlign=middle;rotation=-90;" vertex="1" parent="1">
          <mxGeometry x="557.5" y="220" width="20" height="120" as="geometry" />
        </mxCell>
        <mxCell id="TFzHgLDjFruAC8fcnrSV-158" value="&lt;font style=&quot;font-size: 12px;&quot;&gt;W&lt;sub style=&quot;font-size: 12px;&quot;&gt;1&lt;/sub&gt;&lt;/font&gt;" style="rounded=0;whiteSpace=wrap;html=1;aspect=fixed;fontSize=12;fontStyle=3;fontFamily=Verdana;" vertex="1" parent="1">
          <mxGeometry x="480" y="228.5" width="35" height="35" as="geometry" />
        </mxCell>
        <mxCell id="TFzHgLDjFruAC8fcnrSV-159" value="&lt;font style=&quot;font-size: 12px;&quot;&gt;W&lt;sub style=&quot;font-size: 12px;&quot;&gt;2&lt;/sub&gt;&lt;/font&gt;" style="rounded=0;whiteSpace=wrap;html=1;aspect=fixed;fontSize=12;fontStyle=3;fontFamily=Verdana;" vertex="1" parent="1">
          <mxGeometry x="515" y="228.5" width="35" height="35" as="geometry" />
        </mxCell>
        <mxCell id="TFzHgLDjFruAC8fcnrSV-160" value="&lt;font style=&quot;font-size: 12px;&quot;&gt;W&lt;sub style=&quot;font-size: 12px;&quot;&gt;3&lt;/sub&gt;&lt;/font&gt;" style="rounded=0;whiteSpace=wrap;html=1;aspect=fixed;fontSize=12;fontStyle=3;fontFamily=Verdana;" vertex="1" parent="1">
          <mxGeometry x="550" y="228.5" width="35" height="35" as="geometry" />
        </mxCell>
        <mxCell id="TFzHgLDjFruAC8fcnrSV-161" value="&lt;font style=&quot;font-size: 12px;&quot;&gt;W&lt;sub style=&quot;font-size: 12px;&quot;&gt;4&lt;/sub&gt;&lt;/font&gt;" style="rounded=0;whiteSpace=wrap;html=1;aspect=fixed;fontSize=12;fontStyle=3;fontFamily=Verdana;" vertex="1" parent="1">
          <mxGeometry x="585" y="228.5" width="35" height="35" as="geometry" />
        </mxCell>
        <mxCell id="TFzHgLDjFruAC8fcnrSV-162" value="&lt;font style=&quot;font-size: 12px;&quot;&gt;W&lt;sub style=&quot;font-size: 12px;&quot;&gt;5&lt;/sub&gt;&lt;/font&gt;" style="rounded=0;whiteSpace=wrap;html=1;aspect=fixed;fontSize=12;fontStyle=3;fontFamily=Verdana;" vertex="1" parent="1">
          <mxGeometry x="620" y="228.5" width="35" height="35" as="geometry" />
        </mxCell>
        <mxCell id="TFzHgLDjFruAC8fcnrSV-163" value="" style="endArrow=classic;html=1;rounded=0;" edge="1" parent="1">
          <mxGeometry width="50" height="50" relative="1" as="geometry">
            <mxPoint x="602.5" y="330" as="sourcePoint" />
            <mxPoint x="532.5" y="330.5" as="targetPoint" />
          </mxGeometry>
        </mxCell>
        <mxCell id="TFzHgLDjFruAC8fcnrSV-173" style="rounded=0;orthogonalLoop=1;jettySize=auto;html=1;entryX=0.75;entryY=1;entryDx=0;entryDy=0;exitX=0.5;exitY=0;exitDx=0;exitDy=0;endArrow=none;endFill=0;strokeColor=#999999;" edge="1" parent="1" source="TFzHgLDjFruAC8fcnrSV-165" target="TFzHgLDjFruAC8fcnrSV-71">
          <mxGeometry relative="1" as="geometry" />
        </mxCell>
        <mxCell id="TFzHgLDjFruAC8fcnrSV-175" style="rounded=0;orthogonalLoop=1;jettySize=auto;html=1;entryX=0.75;entryY=1;entryDx=0;entryDy=0;exitX=0.487;exitY=-0.104;exitDx=0;exitDy=0;exitPerimeter=0;endArrow=none;endFill=0;strokeColor=#999999;" edge="1" parent="1" source="TFzHgLDjFruAC8fcnrSV-171" target="TFzHgLDjFruAC8fcnrSV-86">
          <mxGeometry relative="1" as="geometry" />
        </mxCell>
        <mxCell id="TFzHgLDjFruAC8fcnrSV-165" value="" style="rounded=0;whiteSpace=wrap;html=1;strokeColor=#999999;" vertex="1" parent="1">
          <mxGeometry x="168" y="710" width="176" height="50" as="geometry" />
        </mxCell>
        <mxCell id="TFzHgLDjFruAC8fcnrSV-174" style="rounded=0;orthogonalLoop=1;jettySize=auto;html=1;entryX=0.75;entryY=1;entryDx=0;entryDy=0;endArrow=none;endFill=0;strokeColor=#999999;" edge="1" parent="1" target="TFzHgLDjFruAC8fcnrSV-79">
          <mxGeometry relative="1" as="geometry">
            <mxPoint x="256" y="710" as="sourcePoint" />
          </mxGeometry>
        </mxCell>
        <mxCell id="TFzHgLDjFruAC8fcnrSV-171" value="" style="shape=image;verticalLabelPosition=bottom;labelBackgroundColor=default;verticalAlign=top;aspect=fixed;imageAspect=0;image=https://docs.sedex.admin.ch/assets/docker-hub-logo.png;" vertex="1" parent="1">
          <mxGeometry x="177.08" y="714" width="160.92" height="40" as="geometry" />
        </mxCell>
      </root>
    </mxGraphModel>
  </diagram>
</mxfile>
